<?xml version="1.0" encoding="utf-8"?>
<!-- Generator: Adobe Illustrator 28.0.0, SVG Export Plug-In . SVG Version: 6.00 Build 0)  -->
<svg version="1.1" xmlns="http://www.w3.org/2000/svg" xmlns:xlink="http://www.w3.org/1999/xlink" x="0px" y="0px"
	 viewBox="0 0 64 64" style="enable-background:new 0 0 64 64;" xml:space="preserve">
<style type="text/css">
	.st0{display:none;}
	.st1{display:inline;fill:#1E1D21;}
	.st2{fill:none;stroke:#FFFFFF;stroke-width:2;stroke-miterlimit:10;}
	.st3{fill:none;stroke:#FFFFFF;stroke-width:2;stroke-linecap:round;stroke-miterlimit:10;}
</style>
<g id="Layer_1" class="st0">
	<rect y="0" class="st1" width="64" height="64"/>
</g>
<g id="Layer_3">
	<path class="st2" d="M23.8,32.5c-0.6-1.5-0.7-3.2-0.3-4.8c0.8-2.9,3-7,8.5-7c5.5,0,7.6,4.1,8.5,7c0.5,1.6,0.4,3.3-0.2,4.9L36,43.1
		h-8L23.8,32.5z"/>
</g>
<g id="Layer_4">
	<path class="st2" d="M28.1,43.1v2.1c0,0.5,0.4,0.9,0.9,0.9h5.8c0.5,0,0.9-0.4,0.9-0.9v-2.1"/>
</g>
<g id="Layer_5">
	<path class="st2" d="M29.2,46.7c0,0,0.4,3.1,2.9,3.1s2.7-3.1,2.7-3.1"/>
</g>
<g id="Layer_6">
	<path class="st3" d="M34.2,24.2c0,0,2.2,0.3,2.5,3.2"/>
</g>
<g id="Layer_7">
	<line class="st3" x1="32" y1="14.3" x2="32" y2="17.3"/>
	<line class="st3" x1="21.1" y1="18.8" x2="23.2" y2="20.9"/>
	<line class="st3" x1="42.9" y1="18.8" x2="40.8" y2="20.9"/>
	<line class="st3" x1="19.5" y1="29.8" x2="16.5" y2="29.8"/>
	<line class="st3" x1="47.5" y1="29.8" x2="44.5" y2="29.8"/>
	<line class="st3" x1="18.9" y1="40.7" x2="21.4" y2="39"/>
	<line class="st3" x1="45" y1="40.7" x2="42.6" y2="39"/>
</g>
</svg>
